# AST/ASF file generated using VICON BodyLanguage
# -----------------------------------------------
:version 1.10
:name VICON
:units
  mass 1.0
  length 0.45
  angle deg
:documentation
   .ast/.asf automatically generated from VICON data using
   VICON BodyBuilder and BodyLanguage model FoxedUp or BRILLIANT.MOD
:root
   order TX TY TZ RX RY RZ
   axis XYZ
   position 0 0 0  
   orientation 0 0 0 
:bonedata
  begin
     id 1 
     name lhipjoint
     direction 0.64773 -0.699417 0.302095 
     length 2.48597 
     axis 0 0 0  XYZ
  end
  begin
     id 2 
     name lfemur
     direction 0.34202 -0.939693 0  
     length 6.71947  
     axis 0 0 20  XYZ
    dof rx ry rz
    limits (-160.0 20.0)
           (-70.0 70.0)
           (-60.0 70.0)
  end
  begin
     id 3 
     name ltibia
     direction 0.34202 -0.939693 0   
     length 8.08777   
     axis 0 0 20   XYZ
    dof rx
    limits (-10.0 170.0)
  end
  begin
     id 4 
     name lfoot
     direction 0.0808503 -0.222134 0.971658   
     length 2.08264   
     axis -90 7.62852e-016 20   XYZ
    dof rx rz
    limits (-45.0 90.0)
           (-70.0 20.0)
  end
  begin
     id 5 
     name ltoes
     direction 1.53502e-011 -4.22007e-011 1   
     length 1.04662   
     axis -90 7.62852e-016 20   XYZ
    dof rx
    limits (-90.0 20.0)
  end
  begin
     id 6 
     name rhipjoint
     direction -0.610924 -0.726792 0.313919   
     length 2.39233  
     axis 0 0 0  XYZ 
  end
  begin
     id 7 
     name rfemur
     direction -0.34202 -0.939693 0   
     length 6.96955   
     axis 0 0 -20   XYZ
    dof rx ry rz
    limits (-160.0 20.0)
           (-70.0 70.0)
           (-70.0 60.0)
  end
  begin
     id 8 
     name rtibia
     direction -0.34202 -0.939693 0   
     length 8.19584   
     axis 0 0 -20   XYZ
    dof rx
    limits (-10.0 170.0)
 end
 begin
     id 9 
     name rfoot
     direction -0.077777 -0.213691 0.9738   
     length 2.07539  
     axis -90 -7.62852e-016 -20   XYZ
    dof rx rz
    limits (-45.0 90.0)
           (-20.0 70.0)
  end
  begin
     id 10 
     name rtoes
     direction -1.53558e-011 -4.22006e-011 1   
     length 1.04381   
     axis -90 -7.62852e-016 -20   XYZ
    dof rx
    limits (-90.0 20.0)
  end
  begin
     id 11 
     name lowerback
     direction -0.00971646 0.996074 0.0879841   
     length 1.67643   
     axis 0 0 0   XYZ
    dof rx ry rz
    limits (-20.0 45.0)
           (-30.0 30.0)
           (-30.0 30.0)
  end
  begin
     id 12 
     name upperback
     direction 0.0127391 0.991676 0.128127   
     length 1.63741   
     axis 0 0 0   XYZ
    dof rx ry rz
    limits (-20.0 45.0)
           (-30.0 30.0)
           (-30.0 30.0)
  end
  begin
     id 13 
     name thorax
     direction 0.0167583 0.996049 0.0872067   
     length 1.65931   
     axis 0 0 0   XYZ
    dof rx ry rz
    limits (-20.0 45.0)
           (-30.0 30.0)
           (-30.0 30.0)
  end
  begin
     id 14 
     name lowerneck
     direction -0.0317829 0.998312 0.0486079   
     length 1.79021   
     axis 0 0 0   XYZ
    dof rx ry rz
    limits (-20.0 45.0)
           (-30.0 30.0)
           (-30.0 30.0)
  end
  begin
     id 15 
     name upperneck
     direction 0.0896851 0.972452 -0.215159   
     length 1.78797   
     axis 0 0 0   XYZ
    dof rx ry rz
    limits (-20.0 45.0)
           (-30.0 30.0)
           (-30.0 30.0)
  end
  begin
     id 16
     name head
     direction 0.0310949 0.996503 -0.0775582  
     length 1.81549  
     axis 0 0 0   XYZ
    dof rx ry rz
    limits (-20.0 45.0)
           (-30.0 30.0)
           (-30.0 30.0)
  end
  begin
     id 17 
     name lclavicle
     direction 0.853638 0.502051 -0.138733  
     length 3.31627  
     axis 0 0 0   XYZ
    dof ry rz
    limits (-20.0 10.0)
           (0.0 20.0)
  end
  begin
     id 18 
     name lhumerus
     direction 1 -4.48962e-011 -1.41788e-018   
     length 5.54893   
     axis 180 -30 -90   XYZ
    dof rx ry rz
    limits (-60.0 90.0)
           (-90.0 90.0)
           (-90.0 90.0)
  end
  begin
     id 19
     name lradius
     direction 1 -4.48962e-011 -4.95754e-027   
     length 3.02898   
     axis 180 -30 -90   XYZ
    dof rx
    limits (-10.0 170.0)
  end
  begin
     id 20
     name lwrist
     direction 1 -4.48952e-011 -1.03764e-026   
     length 1.51449   
     axis 9.09556e-015 90 90   XYZ
    dof ry
    limits (-180.0 0.0)
 end
  begin
     id 21 
     name lhand
     direction 1 -4.4902e-011 -2.07528e-026   
     length 0.640951   
     axis 1.3242e-014 90 90   XYZ
    dof rx rz
    limits (-90.0 90.0)
           (-45.0 45.0)
  end
  begin
     id 22 
     name lfingers
     direction 1 -4.49014e-011 -4.15056e-026   
     length 0.516751   
     axis 2.64841e-014 90 90   XYZ
    dof rx
    limits (0.0 90.0)
  end
  begin
     id 23
     name lthumb
     direction 0.707107 -6.35008e-011 0.707107   
     length 0.741954   
     axis -90 45 2.85299e-015   XYZ
    dof rx rz
    limits (-45.0 45.0)
           (-45.0 45.0)
  end
  begin
     id 24 
     name rclavicle
     direction -0.888531 0.455324 -0.0565039   
     length 3.20126  
     axis 0 0 0   XYZ 
    dof ry rz
    limits (-10.0 20.0)
           (-20.0 0.0)
  end
  begin
     id 25 
     name rhumerus
     direction -1 -4.48946e-011 -8.98298e-028  
     length 5.3519   
     axis 180 30 90   XYZ
    dof rx ry rz
    limits (-90.0 60.0)
           (-90.0 90.0)
           (-90.0 90.0)
  end
  begin
     id 26 
     name rradius
     direction -1 -4.4899e-011 -3.18779e-027   
     length 3.02531   
     axis 180 30 90   XYZ
    dof rx
    limits (-10.0 170.0)
  end
  begin
     id 27 
     name rwrist
     direction -1 -4.4897e-011 -1.03764e-026   
     length 1.51266   
     axis 9.09556e-015 -90 -90   XYZ
    dof ry
    limits (-180.0 0.0)
  end
  begin
     id 28
     name rhand
     direction -1 -4.48941e-011 -2.07528e-026   
     length 0.78389   
     axis 1.3242e-014 -90 -90   XYZ
    dof rx rz
    limits (-90.0 90.0)
           (-45.0 45.0)
  end
  begin
     id 29
     name rfingers
     direction -1 -4.49012e-011 -4.15056e-026   
     length 0.631992   
     axis 2.64841e-014 -90 -90   XYZ
    dof rx
    limits (0.0 90.0)
  end
  begin
     id 30
     name rthumb
     direction -0.707107 -6.3496e-011 0.707107   
     length 0.907418   
     axis -90 -45 -2.85299e-015   XYZ
    dof rx rz
    limits (-45.0 45.0)
           (-45.0 45.0)
  end
:hierarchy
  begin
    root lhipjoint rhipjoint lowerback
    lhipjoint lfemur
    lfemur ltibia
    ltibia lfoot
    lfoot ltoes
    rhipjoint rfemur
    rfemur rtibia
    rtibia rfoot
    rfoot rtoes
    lowerback upperback
    upperback thorax
    thorax lowerneck lclavicle rclavicle
    lowerneck upperneck
    upperneck head
    lclavicle lhumerus
    lhumerus lradius
    lradius lwrist
    lwrist lhand lthumb
    lhand lfingers
    rclavicle rhumerus
    rhumerus rradius
    rradius rwrist
    rwrist rhand rthumb
    rhand rfingers
  end

#!OML:ASF E:\Style3\Style3.ASF
:FULLY-SPECIFIED
:DEGREES
399
root -1.17047 17.7277 1.91062 -123.172 76.2228 -142.252
lowerback 10.7229 -0.0833612 -8.81476
upperback 8.12715 0.163357 -8.36082
thorax 2.65479 0.290588 -3.86031
lowerneck -5.5279 -11.1319 -9.46169
upperneck 17.6269 -17.7382 20.1381
head 9.17648 -7.50045 6.46884
rclavicle 5.08889e-014 -2.22639e-014
rhumerus 76.3838 20.9755 27.9803
rradius 65.6907
rwrist -17.0059
rhand 49.4723 6.61312
rfingers 7.12502
rthumb 69.6025 9.6502
lclavicle 5.08889e-014 -2.22639e-014
lhumerus 46.2026 -61.5656 68.4656
lradius 103.426
lwrist 94.5108
lhand -17.4617 21.6911
lfingers 7.12502
lthumb 8.78984 51.488
rfemur -28.6216 -0.0145067 28.9506
rtibia 20.5872
rfoot -9.30556 -13.6299
rtoes -21.1188
lfemur -31.7343 -12.1902 3.82278
ltibia 20.1341
lfoot -5.68949 23.7437
ltoes -28.4652
400
root -1.19783 17.7245 1.91147 -123.464 76.0062 -142.628
lowerback 11.1306 0.0243599 -8.81253
upperback 8.34617 0.290922 -8.24556
thorax 2.66899 0.356074 -3.75522
lowerneck -5.62389 -11.1326 -9.4249
upperneck 17.8589 -17.754 20.0679
head 9.26649 -7.49122 6.43647
rclavicle 3.81667e-014 8.90555e-014
rhumerus 77.2931 20.8827 28.21
rradius 65.3509
rwrist -17.2047
rhand 49.0097 6.16872
rfingers 7.12502
rthumb 69.2904 8.29496
lclavicle 3.81667e-014 8.90555e-014
lhumerus 45.9514 -61.6812 68.5095
lradius 103.631
lwrist 94.6821
lhand -17.9181 21.6118
lfingers 7.12502
lthumb 8.34938 51.4268
rfemur -28.8726 -0.0984201 29.0506
rtibia 20.7101
rfoot -9.26945 -13.709
rtoes -21.6115
lfemur -32.1103 -12.1552 3.97762
ltibia 20.2991
lfoot -5.68907 23.5344
ltoes -28.3447
401
root -1.22791 17.717 1.91093 -123.355 75.778 -142.741
lowerback 11.3504 0.122051 -8.70083
upperback 8.49827 0.422114 -8.12688
thorax 2.71064 0.423329 -3.7053
lowerneck -5.52848 -11.1067 -9.43394
upperneck 17.9971 -17.7178 20.0166
head 9.28465 -7.47693 6.43438
rclavicle -3.49861e-014 -1.27222e-014
rhumerus 77.5221 21.0806 28.1771
rradius 65.6958
rwrist -16.9775
rhand 48.7658 5.84933
rfingers 7.12502
rthumb 69.1237 7.50658
lclavicle -3.49861e-014 -1.27222e-014
lhumerus 45.4465 -61.7614 68.7499
lradius 103.889
lwrist 94.8901
lhand -18.1083 21.6607
lfingers 7.12502
lthumb 8.16579 51.4829
rfemur -29.2945 -0.212213 29.2228
rtibia 20.8328
rfoot -9.19775 -13.7074
rtoes -21.6681
lfemur -32.6218 -12.069 4.22263
ltibia 20.4373
lfoot -5.58262 23.3954
ltoes -28.2029
402
root -1.25489 17.7107 1.90805 -123.403 75.6008 -142.966
lowerback 11.5434 0.233887 -8.61625
upperback 8.66932 0.577354 -7.99475
thorax 2.78803 0.500613 -3.62862
lowerneck -5.45572 -11.0722 -9.53229
upperneck 18.1914 -17.664 19.954
head 9.33072 -7.45647 6.446
rclavicle -7.95139e-014 -5.08889e-014
rhumerus 77.6053 21.211 28.2593
rradius 66.1968
rwrist -16.737
rhand 48.8378 5.48904
rfingers 7.12502
rthumb 69.1731 7.28405
lclavicle -7.95139e-014 -5.08889e-014
lhumerus 44.814 -61.8072 69.291
lradius 104.123
lwrist 95.0932
lhand -18.2029 21.7371
lfingers 7.12502
lthumb 8.07453 51.5628
rfemur -29.6654 -0.317582 29.3129
rtibia 20.962
rfoot -9.18456 -13.6864
rtoes -21.8843
lfemur -33.0705 -12.0278 4.37455
ltibia 20.5605
lfoot -5.3693 23.3129
ltoes -28.5144
403
root -1.27853 17.7075 1.90488 -123.942 75.4529 -143.55
lowerback 11.9039 0.42411 -8.74885
upperback 8.90794 0.812742 -7.81644
thorax 2.85064 0.610817 -3.39401
lowerneck -5.48917 -11.0987 -9.27915
upperneck 18.3659 -17.6813 19.6582
head 9.3433 -7.45819 6.29771
rclavicle 4.77083e-014 4.77083e-014
rhumerus 77.2485 21.6162 28.5284
rradius 66.5824
rwrist -16.4584
rhand 48.4626 5.69568
rfingers 7.12502
rthumb 68.9145 6.78069
lclavicle 4.77083e-014 4.77083e-014
lhumerus 44.497 -61.9892 69.697
lradius 104.188
lwrist 95.3142
lhand -18.4541 21.9031
lfingers 7.12502
lthumb 7.83207 51.738
rfemur -29.8684 -0.405549 29.2826
rtibia 21.0897
rfoot -9.1618 -13.7789
rtoes -21.9467
lfemur -33.3827 -12.034 4.37522
ltibia 20.6963
lfoot -5.23252 23.1578
ltoes -28.6429
404
root -1.30146 17.7067 1.90348 -124.473 75.2918 -144.133
lowerback 12.2844 0.664259 -8.96423
upperback 9.16586 1.10765 -7.60884
thorax 2.92222 0.745939 -3.09059
lowerneck -5.56079 -11.1799 -8.92802
upperneck 18.4516 -17.7824 19.3984
head 9.34164 -7.49287 6.1292
rclavicle 3.18055e-015 6.99722e-014
rhumerus 77.1346 21.8421 28.7903
rradius 66.6532
rwrist -16.4361
rhand 48.0513 5.75697
rfingers 7.12502
rthumb 68.6273 6.0841
lclavicle 3.18055e-015 6.99722e-014
lhumerus 44.3842 -62.2778 69.877
lradius 104.188
lwrist 95.4573
lhand -18.7226 22.0715
lfingers 7.12502
lthumb 7.57288 51.9159
rfemur -30.0544 -0.473967 29.2624
rtibia 21.1951
rfoot -9.10821 -13.9318
rtoes -22.0619
lfemur -33.6992 -12.0188 4.38195
ltibia 20.8495
lfoot -5.1652 22.9406
ltoes -28.6219
405
root -1.32521 17.7037 1.90191 -124.638 75.0802 -144.389
lowerback 12.6439 0.737834 -8.83323
upperback 9.34395 1.20395 -7.53406
thorax 2.91937 0.803451 -3.1011
lowerneck -5.61188 -11.1452 -8.93592
upperneck 18.6944 -17.7571 19.4039
head 9.43339 -7.46243 6.14075
rclavicle -1.59028e-014 1.04958e-013
rhumerus 77.3426 21.9827 28.7143
rradius 66.8826
rwrist -16.4278
rhand 47.9399 5.38248
rfingers 7.12502
rthumb 68.5488 5.50799
lclavicle -1.59028e-014 1.04958e-013
lhumerus 43.6806 -62.3142 70.3275
lradius 104.397
lwrist 95.6345
lhand -19.0508 22.3345
lfingers 7.12502
lthumb 7.25613 52.1901
rfemur -30.2861 -0.556462 29.3646
rtibia 21.2814
rfoot -9.02846 -14.0247
rtoes -22.3931
lfemur -34.0509 -11.8634 4.46462
ltibia 21.0007
lfoot -5.12428 22.6485
ltoes -28.7079
